<?xml version="1.0" encoding="utf-8"?>
<!-- Generator: Adobe Illustrator 23.0.2, SVG Export Plug-In . SVG Version: 6.00 Build 0)  -->
<svg version="1.1"
	 id="svg6837" inkscape:output_extension="org.inkscape.output.svg.inkscape" inkscape:version="0.48.2 r9819" sodipodi:docname="E22.svg" sodipodi:modified="true" sodipodi:version="0.32" xmlns:cc="http://creativecommons.org/ns#" xmlns:dc="http://purl.org/dc/elements/1.1/" xmlns:inkscape="http://www.inkscape.org/namespaces/inkscape" xmlns:rdf="http://www.w3.org/1999/02/22-rdf-syntax-ns#" xmlns:sodipodi="http://sodipodi.sourceforge.net/DTD/sodipodi-0.dtd" xmlns:svg="http://www.w3.org/2000/svg"
	 xmlns="http://www.w3.org/2000/svg" xmlns:xlink="http://www.w3.org/1999/xlink" x="0px" y="0px" width="103.6px" height="187.4px"
	 viewBox="0 0 103.6 187.4" style="enable-background:new 0 0 103.6 187.4;" xml:space="preserve">
<symbol  id="chimney" viewBox="-51.8 -93.7 103.6 187.4">
	<path id="path6840_1_" d="M-26.5-52.8c-5,43-10,86-15,129h-10.3v5h22.7c1.2,7.1,7.4,12.5,14.8,12.5s13.5-5.4,14.8-12.5h22.8v-5
		H12.9c-4.9-43-10.2-86-15-129C-11-52.8-18.6-52.8-26.5-52.8z M-22.1-47.8h15.6l14.4,124H0.5c-1.2-7.1-7.4-12.5-14.8-12.5
		s-13.6,5.4-14.8,12.5h-7.4L-22.1-47.8z M-14.3,68.7c5.6,0,10,4.4,10,10s-4.4,10-10,10s-10-4.4-10-10S-19.9,68.7-14.3,68.7z"/>
	<path id="path6842_1_" d="M22-93.7c-0.5,0-1,0-1.5,0.1c-6.3,0.5-13.1,3.4-19.7,9.5c-1-0.2-2-0.3-3-0.3c-4.1,0-8.3,1.6-12.2,4.2
		c-7.7,5.1-14.2,14.4-12.2,24.6l4.9-1c-1.5-7.6,3.6-15.2,10-19.4c3.2-2.1,6.7-3.3,9.5-3.3s4.7,0.8,6,3.2l4.3-2.5
		c-0.7-1.2-1.6-2.2-2.6-3c9-7.8,17.3-8.3,24.2-5.5c7.5,3,13.6,10.5,15.8,17.7c1.1,3.6,1.3,7.1,0.5,9.8C45.6-57,44-55,41-53.7
		c-5.6,2.4-16.9,1.6-35.2-7.4c0.3-0.2,0.5-0.5,0.8-0.8c1.1-1.1,2-2.7,2-4.6h-5c0,0.3-0.1,0.5-0.7,1.2c-0.6,0.6-1.5,1.3-2.7,2.1
		C-2-61.6-5-60-6.5-56.8l4.5,2.2c0.4-0.8,1.7-2,3.4-3.2C21.6-47.4,34.7-45.5,43-49.1c4.2-1.9,7-5.3,8.1-9.3s0.8-8.4-0.6-12.7
		c-2.7-8.6-9.5-17.1-18.7-20.8C28.8-93.2,25.5-93.8,22-93.7z"/>
</symbol>
<title  id="title2985">E22: Chimney</title>
<sodipodi:namedview  bordercolor="#666666" borderopacity="1" gridtolerance="10" guidetolerance="10" id="namedview6846" inkscape:current-layer="svg6837" inkscape:cx="-395.73644" inkscape:cy="200" inkscape:pageopacity="0" inkscape:pageshadow="2" inkscape:window-height="575" inkscape:window-maximized="0" inkscape:window-width="802" inkscape:window-x="104" inkscape:window-y="104" inkscape:zoom="0.645" objecttolerance="10" pagecolor="#ffffff" showgrid="false">
	</sodipodi:namedview>
<use xlink:href="#chimney"  width="103.6" height="187.4" id="use6844" x="-51.8" y="-93.7" transform="matrix(1 0 0 1 51.8 93.7212)" style="overflow:visible;"/>
</svg>
