<?xml version="1.0" encoding="utf-8"?>
<!-- Generator: Adobe Illustrator 23.0.2, SVG Export Plug-In . SVG Version: 6.00 Build 0)  -->
<svg version="1.1"
	 id="svg6371" inkscape:output_extension="org.inkscape.output.svg.inkscape" inkscape:version="0.48.2 r9819" sodipodi:docname="E31.svg" sodipodi:modified="true" sodipodi:version="0.32" xmlns:cc="http://creativecommons.org/ns#" xmlns:dc="http://purl.org/dc/elements/1.1/" xmlns:inkscape="http://www.inkscape.org/namespaces/inkscape" xmlns:rdf="http://www.w3.org/1999/02/22-rdf-syntax-ns#" xmlns:sodipodi="http://sodipodi.sourceforge.net/DTD/sodipodi-0.dtd" xmlns:svg="http://www.w3.org/2000/svg"
	 xmlns="http://www.w3.org/2000/svg" xmlns:xlink="http://www.w3.org/1999/xlink" x="0px" y="0px" width="94.6px" height="175.8px"
	 viewBox="0 0 94.6 175.8" style="enable-background:new 0 0 94.6 175.8;" xml:space="preserve">
<symbol  id="dish_aerial" viewBox="-47.3 -87.9 94.6 175.8">
	<path id="path6374_1_" d="M-10.2-87.9l-2.2,1.3c-24.3,14-30.8,47.8-15,75.1c4.4,7.6,10.1,14,16.5,18.9h-0.5l-0.3,2.3l-5,50
		l-0.2,1.8c-2.6,2.2-4.5,5.4-5.1,8.9h-22.7c-0.1,0-0.2,0-0.3,0c-1.4,0.1-2.4,1.2-2.4,2.6s1.2,2.4,2.6,2.4H-22
		c1.2,7.1,7.4,12.5,14.8,12.5S6.4,82.5,7.6,75.4h22.7c0.9,0,1.7-0.5,2.2-1.2c0.5-0.8,0.5-1.7,0-2.5c-0.5-0.8-1.3-1.3-2.2-1.2H7.6
		c-0.6-3.6-2.5-6.7-5.1-8.9l-0.2-1.8l-4.7-46.8c15.2,8,32.8,8.7,47.5,0.2l2.2-1.3L46,9.6l-27-46.8l0.2-0.2l6.2-6.3l-1.1-1.6
		l-7.9,3.3l-0.1,0L-9-85.7L-10.2-87.9z M-12-81L40.4,9.8C19,20.5-9,10.4-23.1-14C-37.2-38.5-31.9-67.7-12-81z M20.4-41.3l-1.7,1.7
		l-0.4-0.8L20.4-41.3z M-7.2,15.1L-3,57.4h-8.4L-7.2,15.1z M-7.2,62.9c5.3,0,9.6,4.1,10,9.3c-0.1,0.4-0.1,0.9,0,1.3c0,0,0,0,0,0
		c-0.3,5.2-4.6,9.3-10,9.3c-5.4,0-9.8-4.3-10-9.7c0-0.2,0-0.4,0-0.6C-17,67.2-12.6,62.9-7.2,62.9z"/>
</symbol>
<title  id="title2984">E31: Dish Aerial</title>
<sodipodi:namedview  bordercolor="#666666" borderopacity="1" gridtolerance="10" guidetolerance="10" id="namedview6378" inkscape:current-layer="svg6371" inkscape:cx="-258.17015" inkscape:cy="200" inkscape:pageopacity="0" inkscape:pageshadow="2" inkscape:window-height="808" inkscape:window-maximized="1" inkscape:window-width="1440" inkscape:window-x="0" inkscape:window-y="0" inkscape:zoom="1.2041547" objecttolerance="10" pagecolor="#ffffff" showgrid="false">
	</sodipodi:namedview>
<use xlink:href="#dish_aerial"  width="94.6" height="175.8" id="use6376" x="-47.3" y="-87.9" transform="matrix(1 0 0 1 47.2985 87.8906)" style="overflow:visible;"/>
</svg>
