<?xml version="1.0" encoding="utf-8"?>
<!-- Generator: Adobe Illustrator 23.0.2, SVG Export Plug-In . SVG Version: 6.00 Build 0)  -->
<svg version="1.1"
	 id="Ebene_1" xmlns:cc="http://creativecommons.org/ns#" xmlns:dc="http://purl.org/dc/elements/1.1/" xmlns:rdf="http://www.w3.org/1999/02/22-rdf-syntax-ns#"
	 xmlns="http://www.w3.org/2000/svg" xmlns:xlink="http://www.w3.org/1999/xlink" x="0px" y="0px" width="17.9px" height="6.3px"
	 viewBox="0 0 17.9 6.3" style="enable-background:new 0 0 17.9 6.3;" xml:space="preserve">
<style type="text/css">
	.st0{fill:none;stroke:#800000;stroke-width:0.75;stroke-linejoin:round;}
</style>
<title>WEDKLP19</title>
<desc>weed kelp</desc>
<g>
	<g transform="matrix(.497 0 0 .496 .486 -.448)">
		<path class="st0" d="M1.5,7.3c1.3,1.7,2.6,3.4,3.9,4.3c1.3,0.9,2.4,0.9,3.6,1"/>
		<path class="st0" d="M23.7,7c1.7-1.7,3.4-3.4,5.1-3.7c1.8-0.4,3.6,0.5,5.5,1.4"/>
		<path class="st0" d="M16.5,10.6c2-1.6,3.9-3.1,6.1-3.5c2.2-0.4,5.2,1.1,7,1.3c1.8,0.1,2.7-0.2,3.6-0.5"/>
		<path class="st0" d="M14.3,4.7c1.3-1.3,2.5-2.5,3.8-2.8c1.3-0.3,2.8,0.4,4.2,1.1"/>
		<path class="st0" d="M8.9,7.4c1.5-1.2,2.9-2.3,4.6-2.6s3.9,0.8,5.3,0.9c1.3,0.1,2-0.1,2.7-0.4"/>
		<path class="st0" d="M-0.5,7.9C1.9,7.1,4.4,6.3,7.9,7c3.5,0.7,9.3,4.3,12.7,5.1c3.4,0.8,5.5,0.2,7.7-0.4"/>
	</g>
</g>
</svg>
