<?xml version="1.0" encoding="utf-8"?>
<!-- Generator: Adobe Illustrator 23.0.2, SVG Export Plug-In . SVG Version: 6.00 Build 0)  -->
<svg version="1.1" id="Ebene_1" xmlns="http://www.w3.org/2000/svg" xmlns:xlink="http://www.w3.org/1999/xlink" x="0px" y="0px"
	 width="34.9px" height="34.2px" viewBox="0 0 34.9 34.2" style="enable-background:new 0 0 34.9 34.2;" xml:space="preserve">
<style type="text/css">
	.st0{fill:none;stroke:#2E8E20;stroke-linejoin:round;}
</style>
<title>SEAGRA18</title>
<desc>seagrass</desc>
<g>
	<path class="st0" d="M20.7,33.2c1-0.5,2-0.9,3-1.2c1-0.3,1.8-0.4,2.8-0.4c1,0,2.1,0.2,3.2,0.4"/>
	<path class="st0" d="M29.4,32.2c-0.1-0.2-0.3-0.5-0.5-0.5s-0.8,0.6-1.2,0.6c-0.4,0-0.9-0.5-1.2-0.5c-0.4,0-0.4,0.4-0.9,0.5
		c-0.5,0.1-1.3-0.2-1.8-0.1c-0.5,0.1-0.7,0.4-1.3,0.6s-1.2,0.4-1.9,0.6"/>
	<path class="st0" d="M27.6,31.6c0.4-0.5,0.7-1,1.5-1.7c0.8-0.7,2.2-1.3,3.1-2.5c0.9-1.2,1.4-2.9,2-4.6"/>
	<path class="st0" d="M27.6,31.6c0.4-0.5,0.7-1,1.2-2c0.5-1.1,1.3-2.9,1.6-4.3c0.3-1.4,0.3-2.6,0.3-3.9"/>
	<path class="st0" d="M24.9,31.7c-0.4-0.1-0.8-0.3-0.8-1.3c0.1-1,1-3.3,1.1-4.8c0.1-1.5-0.7-3-0.7-4.4c0-1.4,0.4-2.8,0.8-4.2"/>
	<path class="st0" d="M23.5,32c-0.2-0.2-0.5-0.4-0.5-0.9c0-0.5,0.6-1,0.4-2.2c-0.2-1.2-1.2-3.1-1.4-4.9c-0.2-1.8,0.1-3.8,0.4-5.8"/>
	<path class="st0" d="M21,33.1c-0.5-0.6-0.9-1.2-1.6-2c-0.6-0.9-1.7-2-2.1-3.1c-0.3-1.1-0.1-2.7,0-3.5c0.2-0.8,0.6-1.2,1-1.5"/>
	<path class="st0" d="M22.5,32.3c-0.7-1.2-1.4-2.3-1.9-3.4c-0.5-1.2-1.2-2-1.2-3.4c0-1.4,0.8-3.2,1.5-5"/>
	<path class="st0" d="M19.4,31c0.6-0.5,1.2-1.1,1.5-1.9c0.3-0.9,0.4-2,0.4-3.2"/>
	<path class="st0" d="M25.3,31.7c0.7-0.8,1.3-1.5,1.6-2.6c0.3-1,0.3-2.2,0.4-3.6c0-1.4-0.2-3.7-0.3-4.7c0-1.1,0.1-1.4,0.2-1.7"/>
	<path class="st0" d="M26.5,31.5c0.5-0.7,1-1.5,1.3-2.5c0.3-1.1,0.3-2.5,0.5-4c0.2-1.5,0.5-3.4,0.8-5.2"/>
	<path class="st0" d="M24.3,31.4c1.5-1.3,3.1-2.5,4.1-3.6c1.1-1.1,1.7-2.2,2.3-3.1c0.7-0.9,1.2-1.5,1.6-2.2c0.4-0.7,0.5-1.4,0.6-2.1
		"/>
</g>
<g>
	<path class="st0" d="M4.8,16.9c1-0.5,2-0.9,3-1.2c1-0.3,1.8-0.4,2.8-0.4c1,0,2.1,0.2,3.2,0.4"/>
	<path class="st0" d="M13.5,16c-0.1-0.2-0.3-0.5-0.5-0.5s-0.8,0.6-1.2,0.6c-0.4,0-0.9-0.5-1.2-0.5c-0.4,0-0.4,0.4-0.9,0.5
		c-0.5,0.1-1.3-0.2-1.8-0.1c-0.5,0.1-0.7,0.4-1.3,0.6S5.4,17,4.7,17.2"/>
	<path class="st0" d="M11.7,15.4c0.4-0.5,0.7-1,1.5-1.7c0.8-0.7,2.2-1.3,3.1-2.5c0.9-1.2,1.4-2.9,2-4.6"/>
	<path class="st0" d="M11.7,15.4c0.4-0.5,0.7-1,1.2-2c0.5-1.1,1.3-2.9,1.6-4.3c0.3-1.4,0.3-2.6,0.3-3.9"/>
	<path class="st0" d="M9,15.5c-0.4-0.1-0.8-0.3-0.8-1.3c0.1-1,1-3.3,1.1-4.8c0.1-1.5-0.7-3-0.7-4.4c0-1.4,0.4-2.8,0.8-4.2"/>
	<path class="st0" d="M7.6,15.8c-0.2-0.2-0.5-0.4-0.5-0.9c0-0.5,0.6-1,0.4-2.2c-0.2-1.2-1.2-3.1-1.4-4.9C6,6.1,6.2,4.1,6.5,2.1"/>
	<path class="st0" d="M5,16.9c-0.5-0.6-0.9-1.2-1.6-2c-0.6-0.9-1.7-2-2.1-3.1c-0.3-1.1-0.1-2.7,0-3.5C1.6,7.3,2,7,2.4,6.7"/>
	<path class="st0" d="M6.6,16.1c-0.7-1.2-1.4-2.3-1.9-3.4c-0.5-1.2-1.2-2-1.2-3.4c0-1.4,0.8-3.2,1.5-5"/>
	<path class="st0" d="M3.5,14.8c0.6-0.5,1.2-1.1,1.5-1.9c0.3-0.9,0.4-2,0.4-3.2"/>
	<path class="st0" d="M9.4,15.4c0.7-0.8,1.3-1.5,1.6-2.6c0.3-1,0.3-2.2,0.4-3.6c0-1.4-0.2-3.7-0.3-4.7c0-1.1,0.1-1.4,0.2-1.7"/>
	<path class="st0" d="M10.6,15.3c0.5-0.7,1-1.5,1.3-2.5c0.3-1.1,0.3-2.5,0.5-4c0.2-1.5,0.5-3.4,0.8-5.2"/>
	<path class="st0" d="M8.4,15.1c1.5-1.3,3.1-2.5,4.1-3.6c1.1-1.1,1.7-2.2,2.3-3.1c0.7-0.9,1.2-1.5,1.6-2.2c0.4-0.7,0.5-1.4,0.6-2.1"
		/>
</g>
</svg>
