<?xml version="1.0" encoding="utf-8"?>
<!-- Generator: Adobe Illustrator 23.0.2, SVG Export Plug-In . SVG Version: 6.00 Build 0)  -->
<svg version="1.1" id="Ebene_1" xmlns="http://www.w3.org/2000/svg" xmlns:xlink="http://www.w3.org/1999/xlink" x="0px" y="0px"
	 width="18.7px" height="18px" viewBox="0 0 18.7 18" style="enable-background:new 0 0 18.7 18;" xml:space="preserve">
<style type="text/css">
	.st0{fill:none;stroke:#2E8E20;stroke-linejoin:round;}
</style>
<title>SEAGRA18</title>
<desc>seagrass</desc>
<g>
	<path class="st0" d="M4.6,17c1-0.5,2-0.9,3-1.2c1-0.3,1.8-0.4,2.8-0.4c1,0,2.1,0.2,3.2,0.4"/>
	<path class="st0" d="M13.3,16c-0.1-0.2-0.3-0.5-0.5-0.5s-0.8,0.6-1.2,0.6c-0.4,0-0.9-0.5-1.2-0.5c-0.4,0-0.4,0.4-0.9,0.5
		C9,16.2,8.1,15.9,7.6,16c-0.5,0.1-0.7,0.4-1.3,0.6S5.2,17,4.5,17.2"/>
	<path class="st0" d="M11.5,15.4c0.4-0.5,0.7-1,1.5-1.7c0.8-0.7,2.2-1.3,3.1-2.5c0.9-1.2,1.4-2.9,2-4.6"/>
	<path class="st0" d="M11.5,15.4c0.4-0.5,0.7-1,1.2-2c0.5-1.1,1.3-2.9,1.6-4.3c0.3-1.4,0.3-2.6,0.3-3.9"/>
	<path class="st0" d="M8.8,15.5c-0.4-0.1-0.8-0.3-0.8-1.3c0.1-1,1-3.3,1.1-4.8c0.1-1.5-0.7-3-0.7-4.4c0-1.4,0.4-2.8,0.8-4.2"/>
	<path class="st0" d="M7.4,15.8c-0.2-0.2-0.5-0.4-0.5-0.9c0-0.5,0.6-1,0.4-2.2c-0.2-1.2-1.2-3.1-1.4-4.9C5.8,6.1,6,4.1,6.3,2.1"/>
	<path class="st0" d="M4.8,16.9c-0.5-0.6-0.9-1.2-1.6-2c-0.6-0.9-1.7-2-2.1-3.1c-0.3-1.1-0.1-2.7,0-3.5c0.2-0.8,0.6-1.2,1-1.5"/>
	<path class="st0" d="M6.4,16.1c-0.7-1.2-1.4-2.3-1.9-3.4c-0.5-1.2-1.2-2-1.2-3.4c0-1.4,0.8-3.2,1.5-5"/>
	<path class="st0" d="M3.3,14.8c0.6-0.5,1.2-1.1,1.5-1.9c0.3-0.9,0.4-2,0.4-3.2"/>
	<path class="st0" d="M9.2,15.5c0.7-0.8,1.3-1.5,1.6-2.6c0.3-1,0.3-2.2,0.4-3.6c0-1.4-0.2-3.7-0.3-4.7c0-1.1,0.1-1.4,0.2-1.7"/>
	<path class="st0" d="M10.4,15.3c0.5-0.7,1-1.5,1.3-2.5c0.3-1.1,0.3-2.5,0.5-4c0.2-1.5,0.5-3.4,0.8-5.2"/>
	<path class="st0" d="M8.2,15.2c1.5-1.3,3.1-2.5,4.1-3.6c1.1-1.1,1.7-2.2,2.3-3.1c0.7-0.9,1.2-1.5,1.6-2.2c0.4-0.7,0.5-1.4,0.6-2.1"
		/>
</g>
</svg>
