<?xml version="1.0" encoding="utf-8"?>
<!-- Generator: Adobe Illustrator 23.0.2, SVG Export Plug-In . SVG Version: 6.00 Build 0)  -->
<svg version="1.1"
	 id="Ebene_1" xmlns:cc="http://creativecommons.org/ns#" xmlns:dc="http://purl.org/dc/elements/1.1/" xmlns:rdf="http://www.w3.org/1999/02/22-rdf-syntax-ns#"
	 xmlns="http://www.w3.org/2000/svg" xmlns:xlink="http://www.w3.org/1999/xlink" x="0px" y="0px" width="808px" height="249px"
	 viewBox="0 0 808 249" style="enable-background:new 0 0 808 249;" xml:space="preserve">
<style type="text/css">
	.st0{fill:none;stroke:#000000;stroke-width:12.9;}
</style>
<title>SEAGRA18</title>
<desc>seagrass</desc>
<path class="st0" d="M385.5,229c31.4-37.6,62.7-75.3,78.4-81.5c15.7-6.3,15.7,18.8,15.7,43.9s0,50.2,18.8,37.6
	c18.8-12.5,56.4-62.7,75.3-75.3c18.8-12.5,18.8,12.5,18.8,37.6s0,50.2,18.8,37.6c18.8-12.5,56.4-62.7,75.3-75.3
	c18.8-12.5,18.8,12.5,18.8,37.6s0,50.2,15.1,45.2c15.1-5,45.2-40.1,75.3-75.3"/>
<path class="st0" d="M13.1,98.7c31.4-37.6,62.7-75.3,78.4-81.5c15.7-6.3,15.7,18.8,15.7,43.9s0,50.2,18.8,37.6
	c18.8-12.5,56.4-62.7,75.3-75.3c18.8-12.5,18.8,12.5,18.8,37.6s0,50.2,18.8,37.6c18.8-12.5,56.4-62.7,75.3-75.3
	C333,10.8,333,35.8,333,60.9s0,50.2,15.1,45.2s45.2-40.1,75.3-75.3"/>
</svg>
