<?xml version="1.0" encoding="utf-8"?>
<!-- Generator: Adobe Illustrator 23.0.2, SVG Export Plug-In . SVG Version: 6.00 Build 0)  -->
<svg version="1.1" id="Ebene_1" xmlns="http://www.w3.org/2000/svg" xmlns:xlink="http://www.w3.org/1999/xlink" x="0px" y="0px"
	 width="29px" height="11.8px" viewBox="0 0 29 11.8" style="enable-background:new 0 0 29 11.8;" xml:space="preserve">
<style type="text/css">
	.st0{fill:none;stroke:#000000;stroke-linejoin:round;}
</style>
<title>RCKLDG06L</title>
<desc>rockledge</desc>
<g transform="matrix(1.0367 0 0 1 -.44776 -1.9541)">
	<path class="st0" d="M0.9,7.8C1,8.7,1.2,9.6,1.5,10.3c0.3,0.8,0.9,1.5,1.4,1.9c0.6,0.4,1.4,0.7,1.9,0.6c0.5-0.1,0.9-1,0.9-1"/>
	<path class="st0" d="M3.4,3.9C3.3,5,3.3,6.1,3.4,7.2c0.2,1.1,0.5,2.6,1,3.4C5,11.4,5.9,12,6.6,12.2C7.3,12.5,8,12.1,8.4,12
		c0.4-0.2,0.5-0.4,0.6-0.7"/>
	<path class="st0" d="M13.9,10.6c-0.1,0.6-0.1,1.2-0.5,1.6c-0.4,0.4-1,0.7-1.7,0.8c-0.6,0.1-1.6,0.1-2-0.2c-0.5-0.3-0.6-0.9-0.7-1.6
		S8.7,9.9,8.7,9c0-0.9,0.2-2,0.4-3.1"/>
	<path class="st0" d="M17.5,10.8c-0.2,0.3-0.4,0.6-0.7,0.7c-0.4,0.1-0.9,0.3-1.4,0.1c-0.5-0.2-1-0.5-1.5-1.1
		c-0.4-0.6-0.8-1.9-1.1-2.7c-0.3-0.8-0.4-1.3-0.5-2c-0.2-0.8-0.3-1.7-0.5-2.7"/>
	<path class="st0" d="M20.9,10c-0.2,0.4-0.4,0.8-0.7,1c-0.3,0.2-0.9,0.4-1.4,0.4c-0.5,0-1.1-0.1-1.4-0.5s-0.6-1.2-0.7-1.9
		c-0.1-0.7,0-1.4,0.1-2.2c0.1-0.8,0.3-1.8,0.5-2.7"/>
	<path class="st0" d="M26.4,5.7c0.2,0.7,0.3,1.4,0.4,2.2c0,0.8,0,1.9-0.1,2.5c-0.2,0.7-0.4,1.2-0.8,1.6c-0.4,0.3-1.1,0.4-1.7,0.3
		c-0.6,0-1.4-0.1-2-0.5c-0.6-0.4-1-1-1.3-1.8c-0.3-0.7-0.4-1.2-0.4-2.6s0.2-3.4,0.4-5.4"/>
</g>
</svg>
