<?xml version="1.0" encoding="utf-8"?>
<!-- Generator: Adobe Illustrator 23.0.2, SVG Export Plug-In . SVG Version: 6.00 Build 0)  -->
<svg version="1.1" id="Ebene_1" shape-rendering="geometricPrecision"
	 xmlns="http://www.w3.org/2000/svg" xmlns:xlink="http://www.w3.org/1999/xlink" x="0px" y="0px" width="34.9px" height="13.8px"
	 viewBox="0 0 34.9 13.8" style="enable-background:new 0 0 34.9 13.8;" xml:space="preserve">
<style type="text/css">
	.st0{fill:none;stroke:#000000;stroke-linejoin:round;}
</style>
<title>CORLDG06L</title>
<desc>coralledge</desc>
<g id="g58" transform="translate(6.2525 2.8326)">
	<g id="g56" transform="translate(-5.7201 -4.1176)">
		<path id="path8" class="st0" d="M4.3,3.6L1.1,9.4"/>
		<path id="path10" class="st0" d="M1.1,9.4v3.2"/>
		<path id="path12" class="st0" d="M1.1,12.6L3,13.9"/>
		<path id="path14" class="st0" d="M3,13.9l1.3-3.2"/>
		<path id="path16" class="st0" d="M4.3,10.7l1.9,3.9"/>
		<path id="path18" class="st0" d="M6.2,14.5v-3.2"/>
		<path id="path20" class="st0" d="M6.2,11.3l2.6,2.6"/>
		<path id="path22" class="st0" d="M8.8,13.9l-0.7-9"/>
		<path id="path24" class="st0" d="M11.4,4.9l-0.7,3.2"/>
		<path id="path26" class="st0" d="M10.7,8.1h3.2"/>
		<path id="path28" class="st0" d="M13.9,8.1l-0.7,4.2"/>
		<path id="path30" class="st0" d="M13.3,12.3l6.4-8"/>
		<path id="path32" class="st0" d="M15.2,12.3l3.2-1.6"/>
		<path id="path34" class="st0" d="M18.4,10.7l-1.3,3.2"/>
		<path id="path36" class="st0" d="M17.1,13.9l2.6-2.4"/>
		<path id="path38" class="st0" d="M19.7,11.5l1.3,3.1"/>
		<path id="path40" class="st0" d="M21,14.5l2.6-7.7"/>
		<path id="path42" class="st0" d="M23.6,6.8l-0.7-5.1"/>
		<path id="path44" class="st0" d="M27.4,3l-1.3,6.4"/>
		<path id="path46" class="st0" d="M26.1,9.4l3.2-2.9"/>
		<path id="path48" class="st0" d="M29.3,6.5l-1.3,5"/>
		<path id="path50" class="st0" d="M28.1,11.5L30.6,9"/>
		<path id="path52" class="st0" d="M30.6,9l2.6,5.6"/>
		<path id="path54" class="st0" d="M33.2,14.5L32.6,3"/>
	</g>
</g>
</svg>
