<?xml version="1.0" encoding="utf-8"?>
<!-- Generator: Adobe Illustrator 23.0.2, SVG Export Plug-In . SVG Version: 6.00 Build 0)  -->
<svg version="1.1"
	 id="svg3425" inkscape:version="0.48.2 r9819" sodipodi:docname="K13_.svg" xmlns:cc="http://creativecommons.org/ns#" xmlns:dc="http://purl.org/dc/elements/1.1/" xmlns:inkscape="http://www.inkscape.org/namespaces/inkscape" xmlns:rdf="http://www.w3.org/1999/02/22-rdf-syntax-ns#" xmlns:sodipodi="http://sodipodi.sourceforge.net/DTD/sodipodi-0.dtd" xmlns:svg="http://www.w3.org/2000/svg"
	 xmlns="http://www.w3.org/2000/svg" xmlns:xlink="http://www.w3.org/1999/xlink" x="0px" y="0px" width="88px" height="88px"
	 viewBox="0 0 88 88" style="enable-background:new 0 0 88 88;" xml:space="preserve">
<style type="text/css">
	.st0{fill:#81C3E2;}
	.st1{fill-rule:evenodd;clip-rule:evenodd;}
</style>
<title  id="title2984">K13: Rocks outside corresponding depth area</title>
<sodipodi:namedview  bordercolor="#666666" borderopacity="1" fit-margin-bottom="0" fit-margin-left="0" fit-margin-right="0" fit-margin-top="0" gridtolerance="10" guidetolerance="10" id="namedview7" inkscape:current-layer="svg3425" inkscape:cx="-60.406744" inkscape:cy="44.000013" inkscape:pageopacity="0" inkscape:pageshadow="2" inkscape:window-height="494" inkscape:window-maximized="0" inkscape:window-width="719" inkscape:window-x="466" inkscape:window-y="0" inkscape:zoom="1.6857143" objecttolerance="10" pagecolor="#ffffff" showgrid="false">
	</sodipodi:namedview>
<path id="path3546" inkscape:connector-curvature="0" class="st0" d="M85,44c0,22.6-18.4,41-41,41S3,66.6,3,44S21.4,3,44,3
	S85,21.4,85,44L85,44z"/>
<path id="path2381" inkscape:connector-curvature="0" class="st1" d="M41.8,0.9C41.4,1.4,41,2.3,41,3c0,0.7,0.4,1.6,0.9,2.1
	S43.3,6,44,6c0.7,0,1.6-0.4,2.1-0.9S47,3.7,47,3c0-0.7-0.4-1.6-0.9-2.1S44.7,0,44,0C43.3,0,42.3,0.4,41.8,0.9z M26.2,4
	c-0.5,0.5-0.9,1.5-0.9,2.2c0,0.7,0.4,1.6,0.9,2.1c0.5,0.5,1.4,0.8,2.1,0.8s1.7-0.4,2.2-0.9s0.8-1.5,0.8-2.2c0-0.7-0.4-1.6-0.9-2.1
	S29,3.1,28.3,3.1C27.6,3.1,26.6,3.5,26.2,4z M57.5,4c-0.5,0.5-0.9,1.4-0.8,2.1c0,0.7,0.4,1.6,0.9,2.1c0.5,0.5,1.4,0.9,2.1,0.9
	c0.7,0,1.6-0.4,2.1-0.9s0.9-1.4,0.9-2.1c0-0.7-0.4-1.6-0.9-2.1s-1.4-0.8-2.1-0.8C59,3.1,58,3.5,57.5,4z M70.8,12.9
	C70.4,13.4,70,14.3,70,15c0,0.7,0.4,1.6,0.9,2.1S72.3,18,73,18c0.7,0,1.6-0.4,2.1-0.9S76,15.7,76,15c0-0.7-0.4-1.6-0.9-2.1
	S73.7,12,73,12C72.3,12,71.3,12.4,70.8,12.9z M12.9,12.9C12.4,13.4,12,14.3,12,15c0,0.7,0.4,1.6,0.9,2.1S14.3,18,15,18
	c0.7,0,1.6-0.4,2.1-0.9S18,15.7,18,15c0-0.7-0.4-1.6-0.9-2.1S15.7,12,15,12C14.3,12,13.4,12.4,12.9,12.9z M79.8,26.2
	c-0.5,0.5-0.9,1.4-0.9,2.1c0,0.7,0.4,1.6,0.9,2.1s1.4,0.8,2.1,0.8c0.7,0,1.6-0.4,2.1-0.9s0.9-1.4,0.9-2.1c0-0.7-0.4-1.6-0.9-2.1
	s-1.4-0.9-2.1-0.9C81.2,25.3,80.2,25.7,79.8,26.2z M4,26.2c-0.5,0.5-0.8,1.4-0.8,2.1C3.1,29,3.5,30,4,30.5s1.4,0.8,2.1,0.8
	c0.7,0,1.6-0.4,2.1-0.9s0.9-1.5,0.9-2.2c0-0.7-0.4-1.6-0.9-2.1s-1.4-0.9-2.1-0.9S4.5,25.7,4,26.2z M82.9,41.9
	c-0.5,0.5-0.8,1.8-0.9,2.1c-0.1,0.3-0.1-0.3,0,0s0.8,1.8,0.9,2.1c0.1,0.3-0.2-0.3,0,0S84.3,47,85,47c0.7,0,1.9-0.6,2.1-0.9
	s-0.1,0.3,0,0S88,44.7,88,44c0-0.7-0.4-1.6-0.9-2.1S85.7,41,85,41C84.3,41,83.4,41.4,82.9,41.9z M0.9,41.9C0.4,42.4,0,43.3,0,44
	c0,0.7,0.4,1.6,0.9,2.1S2.3,47,3,47c0.7,0,1.6-0.4,2.1-0.9S6,44.7,6,44c0-0.7-0.4-1.6-0.9-2.1S3.7,41,3,41C2.3,41,1.4,41.4,0.9,41.9
	z M4,57.6c-0.5,0.5-0.9,1.4-0.9,2.1c0,0.7,0.4,1.6,0.9,2.1s1.4,0.8,2.1,0.8c0.7,0,1.6-0.4,2.1-0.9s0.9-1.4,0.9-2.1
	c0-0.7-0.4-1.6-0.9-2.1s-1.4-0.9-2.1-0.9C5.4,56.7,4.5,57.1,4,57.6z M79.8,57.6c-0.5,0.5-0.9,1.5-0.9,2.2c0,0.7,0.4,1.6,0.9,2.1
	s1.4,0.8,2.1,0.8c0.7,0,1.6-0.4,2.1-0.9s0.9-1.5,0.9-2.2c0-0.7-0.4-1.6-0.9-2.1s-1.4-0.8-2.1-0.8C81.2,56.7,80.2,57.1,79.8,57.6z
	 M12.9,70.9C12.4,71.4,12,72.3,12,73c0,0.7,0.4,1.6,0.9,2.1S14.3,76,15,76s1.7-0.4,2.2-0.9S18,73.7,18,73c0-0.7-0.4-1.6-0.9-2.1
	S15.7,70,15,70C14.3,70,13.4,70.4,12.9,70.9z M70.9,70.9C70.4,71.4,70,72.3,70,73c0,0.7,0.4,1.6,0.9,2.1S72.3,76,73,76
	c0.7,0,1.6-0.4,2.1-0.9S76,73.7,76,73c0-0.7-0.4-1.6-0.9-2.1S73.7,70,73,70C72.3,70,71.4,70.4,70.9,70.9z M26.2,79.8
	c-0.5,0.5-0.9,1.4-0.9,2.1c0,0.7,0.4,1.6,0.9,2.1s1.4,0.8,2.1,0.8c0.7,0,1.6-0.4,2.1-0.9s0.9-1.4,0.9-2.1c0-0.7-0.4-1.6-0.9-2.1
	s-1.4-0.9-2.1-0.9C27.6,78.9,26.7,79.3,26.2,79.8z M57.6,79.8c-0.5,0.5-0.9,1.4-0.9,2.1c0,0.7,0.4,1.6,0.9,2.1s1.4,0.8,2.1,0.8
	c0.7,0,1.6-0.4,2.1-0.9s0.9-1.5,0.9-2.2c0-0.7-0.4-1.6-0.9-2.1s-1.4-0.9-2.1-0.9C59,78.9,58,79.3,57.6,79.8z M41.9,82.9
	C41.4,83.4,41,84.3,41,85c0,0.7,0.4,1.6,0.9,2.1S43.3,88,44,88c0.7,0,1.6-0.4,2.1-0.9S47,85.7,47,85c0-0.7-0.4-1.6-0.9-2.1
	S44.7,82,44,82C43.3,82,42.4,82.4,41.9,82.9z"/>
<path id="path2828" inkscape:connector-curvature="0" class="st1" d="M41.5,71.9V47.5H17v-5h24.5V18h5v24.4h24.5v5H46.4v24.4
	C46.4,71.9,41.5,71.9,41.5,71.9z M66.3,27.3l-0.5,2.1l-1.5,1.7l-2,0.8L60,31.6l-1.8-1.3l-1-2v-2.2l1-2l1.8-1.3l2.2-0.3l2,0.8
	l1.5,1.7L66.3,27.3z M30.8,27.3l-0.5,2.1l-1.5,1.7l-2.1,0.8l-2.2-0.3l-1.8-1.3l-1-2v-2.2l1-2l1.8-1.3l2.2-0.3l2.1,0.8l1.5,1.7
	C30.3,25.1,30.8,27.3,30.8,27.3z M30.8,62.7l-0.5,2.2l-1.5,1.6l-2.1,0.7L24.6,67l-1.8-1.3l-1-1.9v-2.2l1-1.9l1.8-1.3l2.2-0.3
	l2.1,0.8l1.5,1.6C30.3,60.5,30.8,62.7,30.8,62.7z M66.3,62.7l-0.5,2.2l-1.5,1.7l-2,0.7L60,67l-1.8-1.3l-1-1.9v-2.2l1-1.9l1.8-1.3
	l2.2-0.3l2,0.8l1.5,1.6C65.7,60.5,66.3,62.7,66.3,62.7z"/>
</svg>
